<?xml version="1.0" standalone="no"?>
<!DOCTYPE svg PUBLIC "-//W3C//DTD SVG 20010904//EN"
 "http://www.w3.org/TR/2001/REC-SVG-20010904/DTD/svg10.dtd">
<svg version="1.0" xmlns="http://www.w3.org/2000/svg"
 width="831.000000pt" height="542.000000pt" viewBox="0 0 831.000000 542.000000"
 preserveAspectRatio="xMidYMid meet">

<g transform="translate(0.000000,542.000000) scale(0.100000,-0.100000)"
fill="#000000" stroke="none">
<path d="M1533 3190 c-64 -38 -63 -34 -63 -512 0 -412 1 -435 20 -465 38 -64
33 -63 520 -63 484 0 488 0 523 59 15 26 17 72 17 471 0 399 -2 445 -17 471
-35 59 -38 59 -525 59 -422 0 -445 -1 -475 -20z m727 -227 c46 -13 86 -26 88
-28 2 -2 -8 -36 -23 -77 -39 -106 -64 -229 -70 -343 -8 -132 -10 -140 -41
-153 -25 -12 -31 -7 -172 128 -80 77 -149 137 -152 133 -4 -5 -16 -59 -26
-122 -18 -114 -30 -141 -63 -141 -44 0 -48 15 -83 313 -19 158 -32 290 -29
292 7 8 225 5 236 -3 6 -4 46 -69 88 -144 43 -76 81 -138 84 -138 2 0 2 38 -2
85 -4 47 -4 119 0 160 l7 76 36 -7 c21 -4 75 -18 122 -31z"/>
<path d="M2836 2994 c-14 -13 -16 -50 -16 -244 0 -194 2 -231 16 -244 8 -9 19
-16 24 -16 5 0 16 7 24 16 13 13 16 45 16 192 l0 177 115 -115 c63 -63 115
-119 115 -124 0 -6 -22 11 -48 37 -52 51 -85 59 -102 26 -10 -18 -2 -30 72
-105 95 -98 113 -111 134 -93 11 9 14 55 14 249 0 205 -2 239 -16 251 -11 9
-20 10 -32 2 -14 -8 -18 -30 -20 -122 -1 -61 -6 -111 -10 -111 -4 0 -61 54
-127 120 -66 66 -125 120 -132 120 -6 0 -19 -7 -27 -16z"/>
<path d="M3672 2998 c-8 -8 -12 -64 -12 -185 0 -193 8 -224 70 -276 35 -30
101 -51 130 -42 41 13 32 75 -12 75 -28 0 -74 26 -92 52 -11 15 -16 45 -16 95
l0 73 59 0 c41 0 65 5 75 16 39 38 10 64 -71 64 l-63 0 0 54 c0 71 -34 108
-68 74z"/>
<path d="M4922 2998 c-9 -9 -12 -78 -12 -250 0 -230 1 -238 21 -248 16 -9 25
-8 40 6 16 15 19 31 19 117 l0 99 34 34 c40 40 83 45 133 14 40 -24 53 -67 53
-177 0 -70 3 -84 19 -92 13 -7 23 -6 36 2 15 11 16 28 13 133 -3 115 -4 122
-32 158 -51 67 -145 93 -221 62 l-35 -15 0 69 c0 49 -4 73 -16 84 -19 19 -36
20 -52 4z"/>
<path d="M6016 2994 c-19 -19 -20 -25 -3 -49 20 -26 67 -13 67 18 0 43 -35 60
-64 31z"/>
<path d="M3355 2852 c-110 -51 -144 -185 -74 -284 38 -53 121 -82 191 -66 84
18 147 96 148 179 0 49 -43 129 -84 157 -48 33 -129 39 -181 14z m154 -97 c49
-56 35 -137 -29 -170 -37 -19 -54 -19 -95 1 -106 50 -69 204 50 204 37 0 47
-5 74 -35z"/>
<path d="M4015 2860 c-63 -21 -113 -87 -122 -159 -14 -124 107 -229 231 -201
76 17 121 77 81 106 -15 11 -26 9 -68 -13 -47 -25 -52 -26 -90 -12 -22 8 -47
24 -55 37 l-14 22 130 0 c152 0 168 7 157 69 -16 87 -83 150 -166 156 -30 3
-67 0 -84 -5z m134 -96 c17 -14 31 -30 31 -35 0 -5 -45 -9 -100 -9 -55 0 -100
4 -100 9 0 23 63 61 100 61 27 0 48 -8 69 -26z"/>
<path d="M4554 2851 c-58 -36 -70 -124 -21 -169 35 -33 72 -42 167 -42 81 0
89 -2 95 -20 12 -39 -10 -49 -113 -52 -94 -3 -97 -4 -100 -27 -6 -39 21 -51
112 -51 98 0 142 19 170 71 18 32 18 41 7 78 -19 65 -54 81 -172 81 -102 0
-124 9 -117 47 3 15 17 19 98 23 102 5 120 11 120 39 0 34 -21 41 -119 41 -76
0 -102 -4 -127 -19z"/>
<path d="M5440 2854 c-114 -49 -151 -185 -78 -287 43 -61 157 -89 225 -55 29
14 32 14 47 -3 19 -23 30 -24 50 -3 13 13 16 44 16 178 0 166 -4 186 -41 186
-9 0 -22 -6 -28 -14 -11 -13 -17 -13 -46 0 -44 18 -101 17 -145 -2z m149 -99
c49 -56 35 -137 -29 -170 -37 -19 -54 -19 -95 1 -105 50 -68 204 50 204 37 0
47 -5 74 -35z"/>
<path d="M5752 2858 c-8 -8 -12 -63 -12 -180 0 -159 1 -168 21 -178 16 -9 25
-8 40 6 16 15 19 31 19 119 0 100 1 104 29 134 18 19 39 31 55 31 38 0 70 35
56 60 -13 24 -56 26 -107 5 -33 -14 -38 -14 -45 0 -11 18 -39 20 -56 3z"/>
<path d="M6010 2851 c-5 -11 -10 -86 -10 -170 0 -138 2 -153 20 -171 16 -16
25 -18 40 -10 19 10 20 22 20 178 0 117 -4 172 -12 180 -18 18 -46 14 -58 -7z"/>
<path d="M6132 2858 c-8 -8 -12 -61 -12 -174 0 -134 3 -165 16 -178 8 -9 19
-16 24 -16 5 0 16 7 24 16 13 12 16 39 16 130 0 101 2 116 20 134 26 26 72 26
96 -1 16 -18 19 -40 22 -138 4 -125 14 -151 53 -130 17 9 19 23 19 137 0 143
-11 175 -72 212 -35 21 -98 26 -128 10 -13 -7 -21 -7 -25 0 -8 14 -38 13 -53
-2z"/>
<path d="M6582 2863 c-13 -3 -43 -23 -67 -46 -68 -66 -79 -139 -34 -229 42
-83 152 -114 254 -72 20 8 20 8 1 -21 -26 -41 -46 -54 -78 -55 -28 0 -58 -23
-58 -44 0 -25 29 -39 70 -33 61 8 105 41 134 99 25 50 26 60 26 218 0 168 -4
190 -39 190 -8 0 -22 -7 -31 -15 -15 -14 -21 -14 -53 0 -35 14 -77 17 -125 8z
m127 -99 c57 -47 50 -137 -13 -175 -39 -24 -73 -24 -112 0 -92 56 -52 201 56
201 27 0 48 -8 69 -26z"/>
</g>
</svg>
